<mxfile host="app.diagrams.net" agent="Mozilla/5.0 (Macintosh; Intel Mac OS X 10_15_7) AppleWebKit/537.36 (KHTML, like Gecko) Chrome/129.0.0.0 Safari/537.36" version="24.7.8">
  <diagram name="第 1 页" id="dJVTpNaFaK0BzPkIxxJ1">
    <mxGraphModel dx="954" dy="543" grid="1" gridSize="10" guides="1" tooltips="1" connect="1" arrows="1" fold="1" page="1" pageScale="1" pageWidth="827" pageHeight="1169" math="0" shadow="0">
      <root>
        <mxCell id="0" />
        <mxCell id="1" parent="0" />
        <mxCell id="rAs9JT6JyWIiBkCZVOdI-4" value="" style="rounded=1;whiteSpace=wrap;html=1;dashed=1;dashPattern=8 8;strokeWidth=2;fillColor=#cdeb8b;strokeColor=#36393d;" vertex="1" parent="1">
          <mxGeometry x="340" y="150" width="450" height="360" as="geometry" />
        </mxCell>
        <mxCell id="rAs9JT6JyWIiBkCZVOdI-1" value="Map Feature" style="rounded=1;whiteSpace=wrap;html=1;fontSize=20;fillColor=#dae8fc;strokeColor=#6c8ebf;" vertex="1" parent="1">
          <mxGeometry x="590.57" y="30" width="140" height="60" as="geometry" />
        </mxCell>
        <mxCell id="rAs9JT6JyWIiBkCZVOdI-2" value="Agent Feature" style="rounded=1;whiteSpace=wrap;html=1;fontSize=20;fillColor=#d5e8d4;strokeColor=#82b366;" vertex="1" parent="1">
          <mxGeometry x="80" y="140" width="140" height="60" as="geometry" />
        </mxCell>
        <mxCell id="rAs9JT6JyWIiBkCZVOdI-3" value="Ego Feature" style="rounded=1;whiteSpace=wrap;html=1;fontSize=20;fillColor=#ffe6cc;strokeColor=#d79b00;" vertex="1" parent="1">
          <mxGeometry x="80" y="20" width="140" height="60" as="geometry" />
        </mxCell>
        <mxCell id="rAs9JT6JyWIiBkCZVOdI-5" value="" style="rounded=0;whiteSpace=wrap;html=1;fillColor=#f9f7ed;strokeColor=#36393d;" vertex="1" parent="1">
          <mxGeometry x="370" y="180" width="390" height="300" as="geometry" />
        </mxCell>
        <mxCell id="rAs9JT6JyWIiBkCZVOdI-6" value="Temporal-Spatial Fusion Module" style="text;html=1;align=center;verticalAlign=middle;whiteSpace=wrap;rounded=0;" vertex="1" parent="1">
          <mxGeometry x="430" y="520" width="240" height="30" as="geometry" />
        </mxCell>
        <mxCell id="rAs9JT6JyWIiBkCZVOdI-33" value="" style="group" vertex="1" connectable="0" parent="1">
          <mxGeometry x="580" y="246" width="170" height="160" as="geometry" />
        </mxCell>
        <mxCell id="rAs9JT6JyWIiBkCZVOdI-7" value="" style="rounded=1;whiteSpace=wrap;html=1;fillColor=#cce5ff;strokeColor=#36393d;aspect=fixed;" vertex="1" parent="rAs9JT6JyWIiBkCZVOdI-33">
          <mxGeometry width="161.14583333333334" height="138.125" as="geometry" />
        </mxCell>
        <mxCell id="rAs9JT6JyWIiBkCZVOdI-32" value="" style="group;aspect=fixed;" vertex="1" connectable="0" parent="rAs9JT6JyWIiBkCZVOdI-33">
          <mxGeometry x="24.28571428571428" y="17.777777777777782" width="115.10416666666667" height="102.98753472222224" as="geometry" />
        </mxCell>
        <mxCell id="rAs9JT6JyWIiBkCZVOdI-14" style="edgeStyle=orthogonalEdgeStyle;rounded=0;orthogonalLoop=1;jettySize=auto;html=1;entryX=0;entryY=0.5;entryDx=0;entryDy=0;endArrow=none;endFill=0;strokeWidth=2;" edge="1" parent="rAs9JT6JyWIiBkCZVOdI-32" source="rAs9JT6JyWIiBkCZVOdI-8" target="rAs9JT6JyWIiBkCZVOdI-13">
          <mxGeometry relative="1" as="geometry" />
        </mxCell>
        <mxCell id="rAs9JT6JyWIiBkCZVOdI-8" value="" style="rounded=1;whiteSpace=wrap;html=1;fillColor=#eeeeee;strokeColor=#36393d;" vertex="1" parent="rAs9JT6JyWIiBkCZVOdI-32">
          <mxGeometry width="18.17434210526316" height="18.174270833333335" as="geometry" />
        </mxCell>
        <mxCell id="rAs9JT6JyWIiBkCZVOdI-10" style="edgeStyle=orthogonalEdgeStyle;rounded=0;orthogonalLoop=1;jettySize=auto;html=1;entryX=0.5;entryY=1;entryDx=0;entryDy=0;endArrow=none;endFill=0;strokeWidth=2;" edge="1" parent="rAs9JT6JyWIiBkCZVOdI-32" source="rAs9JT6JyWIiBkCZVOdI-9" target="rAs9JT6JyWIiBkCZVOdI-8">
          <mxGeometry relative="1" as="geometry" />
        </mxCell>
        <mxCell id="rAs9JT6JyWIiBkCZVOdI-12" style="edgeStyle=orthogonalEdgeStyle;rounded=0;orthogonalLoop=1;jettySize=auto;html=1;entryX=0;entryY=0.5;entryDx=0;entryDy=0;endArrow=none;endFill=0;strokeWidth=2;" edge="1" parent="rAs9JT6JyWIiBkCZVOdI-32" source="rAs9JT6JyWIiBkCZVOdI-9" target="rAs9JT6JyWIiBkCZVOdI-11">
          <mxGeometry relative="1" as="geometry" />
        </mxCell>
        <mxCell id="rAs9JT6JyWIiBkCZVOdI-27" style="edgeStyle=orthogonalEdgeStyle;rounded=0;orthogonalLoop=1;jettySize=auto;html=1;entryX=0.5;entryY=0;entryDx=0;entryDy=0;endArrow=none;endFill=0;strokeWidth=2;" edge="1" parent="rAs9JT6JyWIiBkCZVOdI-32" source="rAs9JT6JyWIiBkCZVOdI-9" target="rAs9JT6JyWIiBkCZVOdI-24">
          <mxGeometry relative="1" as="geometry" />
        </mxCell>
        <mxCell id="rAs9JT6JyWIiBkCZVOdI-9" value="" style="rounded=1;whiteSpace=wrap;html=1;fillColor=#eeeeee;strokeColor=#36393d;" vertex="1" parent="rAs9JT6JyWIiBkCZVOdI-32">
          <mxGeometry y="42.40663194444445" width="18.17434210526316" height="18.174270833333335" as="geometry" />
        </mxCell>
        <mxCell id="rAs9JT6JyWIiBkCZVOdI-21" style="edgeStyle=orthogonalEdgeStyle;rounded=0;orthogonalLoop=1;jettySize=auto;html=1;entryX=0;entryY=0.5;entryDx=0;entryDy=0;endArrow=none;endFill=0;strokeWidth=2;" edge="1" parent="rAs9JT6JyWIiBkCZVOdI-32" source="rAs9JT6JyWIiBkCZVOdI-11" target="rAs9JT6JyWIiBkCZVOdI-20">
          <mxGeometry relative="1" as="geometry" />
        </mxCell>
        <mxCell id="rAs9JT6JyWIiBkCZVOdI-30" style="edgeStyle=orthogonalEdgeStyle;rounded=0;orthogonalLoop=1;jettySize=auto;html=1;entryX=0.5;entryY=0;entryDx=0;entryDy=0;endArrow=none;endFill=0;strokeWidth=2;" edge="1" parent="rAs9JT6JyWIiBkCZVOdI-32" source="rAs9JT6JyWIiBkCZVOdI-11" target="rAs9JT6JyWIiBkCZVOdI-25">
          <mxGeometry relative="1" as="geometry" />
        </mxCell>
        <mxCell id="rAs9JT6JyWIiBkCZVOdI-11" value="" style="rounded=1;whiteSpace=wrap;html=1;fillColor=#eeeeee;strokeColor=#36393d;" vertex="1" parent="rAs9JT6JyWIiBkCZVOdI-32">
          <mxGeometry x="48.46491228070176" y="42.40663194444445" width="18.17434210526316" height="18.174270833333335" as="geometry" />
        </mxCell>
        <mxCell id="rAs9JT6JyWIiBkCZVOdI-15" style="edgeStyle=orthogonalEdgeStyle;rounded=0;orthogonalLoop=1;jettySize=auto;html=1;entryX=0.5;entryY=0;entryDx=0;entryDy=0;endArrow=none;endFill=0;strokeWidth=2;" edge="1" parent="rAs9JT6JyWIiBkCZVOdI-32" source="rAs9JT6JyWIiBkCZVOdI-13" target="rAs9JT6JyWIiBkCZVOdI-11">
          <mxGeometry relative="1" as="geometry" />
        </mxCell>
        <mxCell id="rAs9JT6JyWIiBkCZVOdI-19" style="edgeStyle=orthogonalEdgeStyle;rounded=0;orthogonalLoop=1;jettySize=auto;html=1;entryX=0;entryY=0.5;entryDx=0;entryDy=0;endArrow=none;endFill=0;strokeWidth=2;" edge="1" parent="rAs9JT6JyWIiBkCZVOdI-32" source="rAs9JT6JyWIiBkCZVOdI-13" target="rAs9JT6JyWIiBkCZVOdI-16">
          <mxGeometry relative="1" as="geometry" />
        </mxCell>
        <mxCell id="rAs9JT6JyWIiBkCZVOdI-13" value="" style="rounded=1;whiteSpace=wrap;html=1;fillColor=#eeeeee;strokeColor=#36393d;" vertex="1" parent="rAs9JT6JyWIiBkCZVOdI-32">
          <mxGeometry x="48.46491228070176" width="18.17434210526316" height="18.174270833333335" as="geometry" />
        </mxCell>
        <mxCell id="rAs9JT6JyWIiBkCZVOdI-23" style="edgeStyle=orthogonalEdgeStyle;rounded=0;orthogonalLoop=1;jettySize=auto;html=1;endArrow=none;endFill=0;strokeWidth=2;" edge="1" parent="rAs9JT6JyWIiBkCZVOdI-32" source="rAs9JT6JyWIiBkCZVOdI-16" target="rAs9JT6JyWIiBkCZVOdI-20">
          <mxGeometry relative="1" as="geometry" />
        </mxCell>
        <mxCell id="rAs9JT6JyWIiBkCZVOdI-16" value="" style="rounded=1;whiteSpace=wrap;html=1;fillColor=#eeeeee;strokeColor=#36393d;" vertex="1" parent="rAs9JT6JyWIiBkCZVOdI-32">
          <mxGeometry x="96.92982456140352" width="18.17434210526316" height="18.174270833333335" as="geometry" />
        </mxCell>
        <mxCell id="rAs9JT6JyWIiBkCZVOdI-31" style="edgeStyle=orthogonalEdgeStyle;rounded=0;orthogonalLoop=1;jettySize=auto;html=1;entryX=0.5;entryY=0;entryDx=0;entryDy=0;endArrow=none;endFill=0;strokeWidth=2;" edge="1" parent="rAs9JT6JyWIiBkCZVOdI-32" source="rAs9JT6JyWIiBkCZVOdI-20" target="rAs9JT6JyWIiBkCZVOdI-26">
          <mxGeometry relative="1" as="geometry" />
        </mxCell>
        <mxCell id="rAs9JT6JyWIiBkCZVOdI-20" value="" style="rounded=1;whiteSpace=wrap;html=1;fillColor=#eeeeee;strokeColor=#36393d;" vertex="1" parent="rAs9JT6JyWIiBkCZVOdI-32">
          <mxGeometry x="96.92982456140352" y="42.40663194444445" width="18.17434210526316" height="18.174270833333335" as="geometry" />
        </mxCell>
        <mxCell id="rAs9JT6JyWIiBkCZVOdI-28" style="edgeStyle=orthogonalEdgeStyle;rounded=0;orthogonalLoop=1;jettySize=auto;html=1;entryX=0;entryY=0.5;entryDx=0;entryDy=0;endArrow=none;endFill=0;strokeWidth=2;" edge="1" parent="rAs9JT6JyWIiBkCZVOdI-32" source="rAs9JT6JyWIiBkCZVOdI-24" target="rAs9JT6JyWIiBkCZVOdI-25">
          <mxGeometry relative="1" as="geometry" />
        </mxCell>
        <mxCell id="rAs9JT6JyWIiBkCZVOdI-24" value="" style="rounded=1;whiteSpace=wrap;html=1;fillColor=#eeeeee;strokeColor=#36393d;" vertex="1" parent="rAs9JT6JyWIiBkCZVOdI-32">
          <mxGeometry y="84.8132638888889" width="18.17434210526316" height="18.174270833333335" as="geometry" />
        </mxCell>
        <mxCell id="rAs9JT6JyWIiBkCZVOdI-29" style="edgeStyle=orthogonalEdgeStyle;rounded=0;orthogonalLoop=1;jettySize=auto;html=1;entryX=0;entryY=0.5;entryDx=0;entryDy=0;endArrow=none;endFill=0;strokeWidth=2;" edge="1" parent="rAs9JT6JyWIiBkCZVOdI-32" source="rAs9JT6JyWIiBkCZVOdI-25" target="rAs9JT6JyWIiBkCZVOdI-26">
          <mxGeometry relative="1" as="geometry" />
        </mxCell>
        <mxCell id="rAs9JT6JyWIiBkCZVOdI-25" value="" style="rounded=1;whiteSpace=wrap;html=1;fillColor=#eeeeee;strokeColor=#36393d;" vertex="1" parent="rAs9JT6JyWIiBkCZVOdI-32">
          <mxGeometry x="48.46491228070176" y="84.8132638888889" width="18.17434210526316" height="18.174270833333335" as="geometry" />
        </mxCell>
        <mxCell id="rAs9JT6JyWIiBkCZVOdI-26" value="" style="rounded=1;whiteSpace=wrap;html=1;fillColor=#eeeeee;strokeColor=#36393d;" vertex="1" parent="rAs9JT6JyWIiBkCZVOdI-32">
          <mxGeometry x="96.92982456140352" y="84.8132638888889" width="18.17434210526316" height="18.174270833333335" as="geometry" />
        </mxCell>
        <mxCell id="rAs9JT6JyWIiBkCZVOdI-36" value="Temporal Attention" style="text;html=1;align=center;verticalAlign=middle;whiteSpace=wrap;rounded=0;" vertex="1" parent="1">
          <mxGeometry x="392.5" y="440" width="150" height="30" as="geometry" />
        </mxCell>
        <mxCell id="rAs9JT6JyWIiBkCZVOdI-37" value="Spatial Attention" style="text;html=1;align=center;verticalAlign=middle;whiteSpace=wrap;rounded=0;" vertex="1" parent="1">
          <mxGeometry x="590" y="440" width="150" height="30" as="geometry" />
        </mxCell>
        <mxCell id="rAs9JT6JyWIiBkCZVOdI-38" value="" style="rounded=1;whiteSpace=wrap;html=1;fillColor=#ffff88;strokeColor=#36393d;" vertex="1" parent="1">
          <mxGeometry x="395" y="200" width="145" height="230" as="geometry" />
        </mxCell>
        <mxCell id="rAs9JT6JyWIiBkCZVOdI-52" style="edgeStyle=orthogonalEdgeStyle;rounded=0;orthogonalLoop=1;jettySize=auto;html=1;strokeWidth=2;" edge="1" parent="1" source="rAs9JT6JyWIiBkCZVOdI-40" target="rAs9JT6JyWIiBkCZVOdI-51">
          <mxGeometry relative="1" as="geometry" />
        </mxCell>
        <mxCell id="rAs9JT6JyWIiBkCZVOdI-40" value="Input" style="rounded=1;whiteSpace=wrap;html=1;fillColor=#fa6800;strokeColor=#C73500;fontColor=#000000;" vertex="1" parent="1">
          <mxGeometry x="414" y="218" width="112" height="32" as="geometry" />
        </mxCell>
        <mxCell id="rAs9JT6JyWIiBkCZVOdI-44" style="edgeStyle=orthogonalEdgeStyle;rounded=0;orthogonalLoop=1;jettySize=auto;html=1;entryX=0.5;entryY=0;entryDx=0;entryDy=0;strokeWidth=2;" edge="1" parent="1" source="rAs9JT6JyWIiBkCZVOdI-1" target="rAs9JT6JyWIiBkCZVOdI-7">
          <mxGeometry relative="1" as="geometry" />
        </mxCell>
        <mxCell id="rAs9JT6JyWIiBkCZVOdI-45" style="edgeStyle=orthogonalEdgeStyle;rounded=0;orthogonalLoop=1;jettySize=auto;html=1;exitX=0;exitY=0.5;exitDx=0;exitDy=0;entryX=1;entryY=0.5;entryDx=0;entryDy=0;endArrow=none;endFill=0;startArrow=classic;startFill=1;strokeWidth=2;" edge="1" parent="1" source="rAs9JT6JyWIiBkCZVOdI-7" target="rAs9JT6JyWIiBkCZVOdI-38">
          <mxGeometry relative="1" as="geometry" />
        </mxCell>
        <mxCell id="rAs9JT6JyWIiBkCZVOdI-49" style="edgeStyle=orthogonalEdgeStyle;rounded=0;orthogonalLoop=1;jettySize=auto;html=1;strokeWidth=2;" edge="1" parent="1">
          <mxGeometry relative="1" as="geometry">
            <mxPoint x="468" y="200" as="targetPoint" />
            <mxPoint x="218" y="50" as="sourcePoint" />
            <Array as="points">
              <mxPoint x="469" y="50" />
            </Array>
          </mxGeometry>
        </mxCell>
        <mxCell id="rAs9JT6JyWIiBkCZVOdI-50" style="edgeStyle=orthogonalEdgeStyle;rounded=0;orthogonalLoop=1;jettySize=auto;html=1;entryX=0.5;entryY=0;entryDx=0;entryDy=0;strokeWidth=2;" edge="1" parent="1" source="rAs9JT6JyWIiBkCZVOdI-2" target="rAs9JT6JyWIiBkCZVOdI-38">
          <mxGeometry relative="1" as="geometry">
            <Array as="points">
              <mxPoint x="468" y="170" />
            </Array>
          </mxGeometry>
        </mxCell>
        <mxCell id="rAs9JT6JyWIiBkCZVOdI-54" style="edgeStyle=orthogonalEdgeStyle;rounded=0;orthogonalLoop=1;jettySize=auto;html=1;strokeWidth=2;" edge="1" parent="1" source="rAs9JT6JyWIiBkCZVOdI-51" target="rAs9JT6JyWIiBkCZVOdI-53">
          <mxGeometry relative="1" as="geometry" />
        </mxCell>
        <mxCell id="rAs9JT6JyWIiBkCZVOdI-51" value="Self Attention" style="rounded=1;whiteSpace=wrap;html=1;fillColor=#f0a30a;strokeColor=#BD7000;fontColor=#000000;" vertex="1" parent="1">
          <mxGeometry x="414" y="277" width="112" height="32" as="geometry" />
        </mxCell>
        <mxCell id="rAs9JT6JyWIiBkCZVOdI-58" style="edgeStyle=orthogonalEdgeStyle;rounded=0;orthogonalLoop=1;jettySize=auto;html=1;entryX=0.5;entryY=0;entryDx=0;entryDy=0;strokeWidth=2;" edge="1" parent="1" source="rAs9JT6JyWIiBkCZVOdI-53" target="rAs9JT6JyWIiBkCZVOdI-55">
          <mxGeometry relative="1" as="geometry" />
        </mxCell>
        <mxCell id="rAs9JT6JyWIiBkCZVOdI-53" value="Time Embedding" style="rounded=1;whiteSpace=wrap;html=1;fillColor=#6d8764;strokeColor=#3A5431;fontColor=#ffffff;" vertex="1" parent="1">
          <mxGeometry x="414" y="335" width="112" height="29" as="geometry" />
        </mxCell>
        <mxCell id="rAs9JT6JyWIiBkCZVOdI-55" value="Cross Attention" style="rounded=1;whiteSpace=wrap;html=1;fillColor=#a0522d;strokeColor=#6D1F00;fontColor=#ffffff;" vertex="1" parent="1">
          <mxGeometry x="414" y="388" width="112" height="32" as="geometry" />
        </mxCell>
        <mxCell id="rAs9JT6JyWIiBkCZVOdI-59" value="" style="rounded=1;whiteSpace=wrap;html=1;fillColor=#ffcccc;strokeColor=#36393d;dashed=1;dashPattern=8 8;" vertex="1" parent="1">
          <mxGeometry x="920" y="192.5" width="180" height="245" as="geometry" />
        </mxCell>
        <mxCell id="rAs9JT6JyWIiBkCZVOdI-61" value="" style="shape=flexArrow;endArrow=classic;html=1;rounded=0;" edge="1" parent="1">
          <mxGeometry width="50" height="50" relative="1" as="geometry">
            <mxPoint x="810" y="330" as="sourcePoint" />
            <mxPoint x="890" y="330" as="targetPoint" />
          </mxGeometry>
        </mxCell>
        <mxCell id="rAs9JT6JyWIiBkCZVOdI-63" value="Decoder" style="text;html=1;align=center;verticalAlign=middle;whiteSpace=wrap;rounded=0;" vertex="1" parent="1">
          <mxGeometry x="890" y="510" width="240" height="30" as="geometry" />
        </mxCell>
        <mxCell id="rAs9JT6JyWIiBkCZVOdI-67" style="edgeStyle=orthogonalEdgeStyle;rounded=0;orthogonalLoop=1;jettySize=auto;html=1;entryX=0.5;entryY=0;entryDx=0;entryDy=0;strokeWidth=2;" edge="1" parent="1" source="rAs9JT6JyWIiBkCZVOdI-64" target="rAs9JT6JyWIiBkCZVOdI-66">
          <mxGeometry relative="1" as="geometry" />
        </mxCell>
        <mxCell id="rAs9JT6JyWIiBkCZVOdI-64" value="GRU Block" style="rounded=1;whiteSpace=wrap;html=1;fillColor=#b1ddf0;strokeColor=#10739e;" vertex="1" parent="1">
          <mxGeometry x="950" y="230" width="120" height="60" as="geometry" />
        </mxCell>
        <mxCell id="rAs9JT6JyWIiBkCZVOdI-66" value="MLP" style="rounded=1;whiteSpace=wrap;html=1;fillColor=#d0cee2;strokeColor=#56517e;" vertex="1" parent="1">
          <mxGeometry x="950" y="335" width="120" height="60" as="geometry" />
        </mxCell>
      </root>
    </mxGraphModel>
  </diagram>
</mxfile>
